<svg xmlns="http://www.w3.org/2000/svg" viewBox="0 0 720 300"><rect width="720" height="300" rx="24" fill="#fff7ea"/><path d="M35 245H685" stroke="#2e9f67" stroke-width="7"/><rect x="545" y="220" width="140" height="25" rx="10" fill="#e8bd73"/><g fill="#ff8a00" stroke="#7b4a00" stroke-width="6"><circle cx="110" cy="175" r="20"/><circle cx="275" cy="140" r="20"/><circle cx="445" cy="105" r="20"/><circle cx="610" cy="180" r="20"/></g><g stroke="#7b4a00" stroke-width="7" stroke-linecap="round"><path d="M110 197l25 28m-15-12l-35 25m38-22l38 22M275 162l42 22m-28-14l-50 38m55-35l60-20M445 127l45 25m-25-13l-55 45m60-40l60 30M610 202l-18 30m8-18l-38 24m42-23l42 20"/></g><g font-family="Tahoma,Arial" font-size="18" fill="#a65300" font-weight="700"><text x="55" y="280">1 ย่อเข่า</text><text x="220" y="280">2 เหวี่ยงแขน</text><text x="390" y="280">3 ลอยตัว</text><text x="560" y="280">4 ลงสองเท้า</text></g></svg>